<svg width="45" height="45" viewBox="0 0 45 45" fill="none" xmlns="http://www.w3.org/2000/svg">
<g clip-path="url(#clip0_458_5301)">
<path d="M45 26.4453H0V29.0803H45V26.4453Z" fill="#30454F"/>
<path d="M0 44.9924H2.7496V42.0093H18.5261V31.7227H0V44.9924ZM2.7496 34.3497H15.7607V39.3743H2.7496V34.3497Z" fill="#30454F"/>
<path d="M21.2031 42.0093H31.6389V44.9924H34.5074V42.0093H44.9987V31.7227H21.2269L21.2031 42.0093ZM34.5074 34.3497H42.2412V39.3743H34.5074V34.3497ZM23.9607 34.3497H31.6389V39.3743H23.9607V34.3497Z" fill="#30454F"/>
<path d="M23.8754 0H13.2891V23.8491H23.8754V0ZM21.1179 21.1983H16.0545V2.6587H21.1179V21.1983Z" fill="#30454F"/>
<path d="M29.3514 7.93652L34.4148 2.64287V23.8491H37.1802V7.93652L42.2357 2.64287V23.8491H45.0012V0H41.1184L37.1802 4.10673V0H33.2975L26.5859 6.9316V23.8491H29.3514V7.93652Z" fill="#30454F"/>
<path d="M7.82092 23.8491H10.6022V0H6.71949L0 6.9316V23.8491H7.82092ZM2.76545 7.92861L7.82092 2.6587V21.1983H2.76545V7.92861Z" fill="#30454F"/>
</g>
<defs>
<clipPath id="clip0_458_5301">
<rect width="45" height="45" fill="white"/>
</clipPath>
</defs>
</svg>
