<svg width="70" height="70" viewBox="0 0 70 70" fill="none" xmlns="http://www.w3.org/2000/svg">
<path d="M45.516 41.3237C49.2627 41.3237 52.1448 44.3499 52.1448 48.0967V61.3543C52.1448 61.4984 52.0007 61.6425 51.8566 61.6425H1.70813C1.56403 61.6425 1.41992 61.4984 1.41992 61.3543V48.0967C1.41992 44.3499 4.44612 41.3237 8.04874 41.3237V54.7255H45.3719V41.3237H45.516Z" stroke="#E6332A" stroke-width="2" stroke-miterlimit="10"/>
<path d="M7.61523 39.1621C7.61523 35.4154 10.6414 32.2451 14.5323 32.2451H39.3183C43.065 32.2451 46.2353 35.2713 46.2353 39.1621" stroke="#E6332A" stroke-width="2" stroke-miterlimit="10"/>
<path d="M11.3633 48.3848H42.0576" stroke="#E6332A" stroke-width="2" stroke-miterlimit="10"/>
<path d="M14.9668 38.0093H17.4166" stroke="#E6332A" stroke-width="2" stroke-miterlimit="10"/>
<path d="M22.0293 38.0093H24.6232" stroke="#E6332A" stroke-width="2" stroke-miterlimit="10"/>
<path d="M29.2324 38.0093H31.6822" stroke="#E6332A" stroke-width="2" stroke-miterlimit="10"/>
<path d="M36.291 38.0093H38.8849" stroke="#E6332A" stroke-width="2" stroke-miterlimit="10"/>
<path d="M14.9668 43.6294H17.4166" stroke="#E6332A" stroke-width="2" stroke-miterlimit="10"/>
<path d="M22.0293 43.6294H24.6232" stroke="#E6332A" stroke-width="2" stroke-miterlimit="10"/>
<path d="M29.2324 43.6294H31.6822" stroke="#E6332A" stroke-width="2" stroke-miterlimit="10"/>
<path d="M36.291 43.6294H38.8849" stroke="#E6332A" stroke-width="2" stroke-miterlimit="10"/>
<path d="M7.61523 61.4985V65.5335" stroke="#E6332A" stroke-width="2" stroke-miterlimit="10"/>
<path d="M44.6523 61.4985V65.5335" stroke="#E6332A" stroke-width="2" stroke-miterlimit="10"/>
<path d="M64.6851 24.1752H39.755C39.6109 24.1752 39.4668 24.0311 39.4668 23.887V8.75598C39.4668 8.61188 39.6109 8.46777 39.755 8.46777H64.6851C64.8292 8.46777 64.9733 8.61188 64.9733 8.75598V24.0311C64.9733 24.1752 64.8292 24.1752 64.6851 24.1752Z" stroke="#E6332A" stroke-width="2" stroke-miterlimit="10"/>
<path d="M61.0827 18.9872H44.7988V11.3496" stroke="#E6332A" stroke-width="2" stroke-miterlimit="10"/>
<path d="M55.4609 53.1411H68.5745" stroke="#E6332A" stroke-width="2" stroke-miterlimit="10"/>
<path d="M62.0898 53.1411V65.5341" stroke="#E6332A" stroke-width="2" stroke-miterlimit="10"/>
<path d="M59.3516 47.6646V51.8436" stroke="#E6332A" stroke-width="2" stroke-miterlimit="10"/>
<path d="M63.8203 49.8262V51.8436" stroke="#E6332A" stroke-width="2" stroke-miterlimit="10"/>
<path d="M1.56836 22.7339H33.9919" stroke="#E6332A" stroke-width="2" stroke-miterlimit="10"/>
<path d="M7.1875 10.7734V22.7341" stroke="#E6332A" stroke-width="2" stroke-miterlimit="10"/>
<path d="M11.6523 10.7734V22.7341" stroke="#E6332A" stroke-width="2" stroke-miterlimit="10"/>
<path d="M16.123 13.2231V22.7341" stroke="#E6332A" stroke-width="2" stroke-miterlimit="10"/>
<path d="M20.5879 10.7734V22.7341" stroke="#E6332A" stroke-width="2" stroke-miterlimit="10"/>
<path d="M22.0312 12.647L30.5334 20.8609" stroke="#E6332A" stroke-width="2" stroke-miterlimit="10"/>
</svg>
