<svg width="70" height="70" viewBox="0 0 70 70" fill="none" xmlns="http://www.w3.org/2000/svg">
<g clip-path="url(#clip0_450_4618)">
<path fill-rule="evenodd" clip-rule="evenodd" d="M60.4844 52.2813C59.6094 53.1563 58.1875 53.1563 57.4219 52.2813L17.8281 12.6875C16.9531 11.8125 16.9531 10.3906 17.8281 9.625L25.5937 1.85938C26.4687 0.984375 27.8906 0.984375 28.6563 1.85938L68.25 41.4531C69.125 42.3281 69.125 43.75 68.25 44.5156L60.4844 52.2813Z" stroke="#E6332A" stroke-width="2"/>
<path d="M19.3594 3.39062L21.6562 5.6875" stroke="#E6332A" stroke-width="2"/>
<path d="M64.4219 48.3438L67.4844 51.5156L58.1875 60.8125L30.1875 40.5781L24.7188 46.0469" stroke="#E6332A" stroke-width="2"/>
<path fill-rule="evenodd" clip-rule="evenodd" d="M8.75053 68.25C7.76616 69.2344 5.79741 69.0157 4.37553 67.5938L3.17241 66.3907C1.75053 64.9688 1.53178 63.1094 2.51616 62.0157L20.563 43.9688C21.5474 42.9844 23.5162 43.2032 24.938 44.625L26.1412 45.8282C27.563 47.25 27.7818 49.1094 26.7974 50.2032L8.75053 68.25Z" stroke="#E6332A" stroke-width="2"/>
<path d="M27.125 6.45312L64.4219 43.75" stroke="#E6332A" stroke-width="2"/>
</g>
<defs>
<clipPath id="clip0_450_4618">
<rect width="70" height="70" fill="white"/>
</clipPath>
</defs>
</svg>
