<svg width="69" height="69" viewBox="0 0 69 69" fill="none" xmlns="http://www.w3.org/2000/svg">
<path d="M28.5312 5.5625C15.8437 5.5625 5.5625 15.8437 5.5625 28.5312C5.5625 41.2188 15.8437 51.5 28.5312 51.5C41.2188 51.5 51.5 41.2188 51.5 28.5312C51.5 15.8437 41.2188 5.5625 28.5312 5.5625ZM28.5312 49.3125C17.0469 49.3125 7.75 40.0156 7.75 28.5312C7.75 17.0469 17.0469 7.75 28.5312 7.75C40.0156 7.75 49.3125 17.0469 49.3125 28.5312C49.3125 40.0156 40.0156 49.3125 28.5312 49.3125Z" fill="#E6332A"/>
<path d="M51.2266 49.6953L49.3672 47.8359C54.0703 42.75 56.9688 35.9688 56.9688 28.5312C56.9688 12.8359 44.2266 0.09375 28.5312 0.09375C12.8359 0.09375 0.09375 12.8359 0.09375 28.5312C0.09375 44.2266 12.8359 56.9688 28.5312 56.9688C35.9688 56.9688 42.75 54.0703 47.8359 49.3672L49.6953 51.2266L46.7969 54.125L61.0703 68.3984L68.3984 61.0703L54.125 46.7969L51.2266 49.6953ZM28.5312 54.7812C14.0391 54.7812 2.28125 43.0234 2.28125 28.5312C2.28125 14.0391 14.0391 2.28125 28.5312 2.28125C43.0234 2.28125 54.7812 14.0391 54.7812 28.5312C54.7812 43.0234 43.0234 54.7812 28.5312 54.7812ZM61.0703 65.3359L49.8594 54.125L54.125 49.8594L65.3359 61.0703L61.0703 65.3359Z" fill="#E6332A"/>
<path d="M37.2813 17.7578H32.3594V19.8359L28.5312 15.4609L16.2812 27.2187L17.8125 28.75L18.6875 27.875V40.0156H37.2813V27.875L38.1562 28.75L39.6875 27.2187L37.2813 24.8125V17.7578ZM35.0938 37.8281H20.875V25.6875L27.9844 18.5781L34.5469 25.1406V19.9453H35.0938V25.4688V25.6875V37.8281Z" fill="#E6332A"/>
</svg>
