<svg width="70" height="70" viewBox="0 0 70 70" fill="none" xmlns="http://www.w3.org/2000/svg">
<path d="M60.6955 40.5331C60.3729 40.5331 60.057 40.369 59.8766 40.0723C58.1648 37.2546 55.5016 35.1546 52.3762 34.1592C51.8731 33.9993 51.5941 33.4606 51.7541 32.9575C51.9141 32.4544 52.4527 32.1755 52.9559 32.3368C56.5215 33.4729 59.5594 35.8669 61.5104 39.0798C61.7852 39.5309 61.6416 40.1202 61.1891 40.395C61.0359 40.4893 60.865 40.5331 60.6955 40.5331Z" fill="#E6332A"/>
<path d="M17.3357 37.7085C17.24 37.7085 17.1416 37.6935 17.0445 37.6634C12.9443 36.3577 9.54141 33.3691 7.70801 29.4644C7.48379 28.9859 7.68887 28.4157 8.16739 28.1915C8.6459 27.9659 9.21602 28.1724 9.44024 28.6509C11.0481 32.0743 14.0313 34.6952 17.6256 35.8396C18.1287 35.9995 18.4076 36.5382 18.2477 37.0413C18.1178 37.4487 17.7404 37.7085 17.3357 37.7085Z" fill="#E6332A"/>
<path d="M48.2646 40.5344C47.7355 40.5344 47.3076 40.1064 47.3076 39.5773V31.7324H22.6914V38.6203H47.5578C48.0869 38.6203 48.5148 39.0482 48.5148 39.5773C48.5148 40.1064 48.0869 40.5344 47.5578 40.5344H21.7344C21.2053 40.5344 20.7773 40.1064 20.7773 39.5773V30.7754C20.7773 30.2463 21.2053 29.8184 21.7344 29.8184H48.2646C48.7937 29.8184 49.2217 30.2463 49.2217 30.7754V39.5773C49.2217 40.1051 48.7937 40.5344 48.2646 40.5344Z" fill="#E6332A"/>
<path d="M64.4328 68.1541H55.6309C55.1018 68.1541 54.6738 67.7262 54.6738 67.1971V50.2822C54.6738 49.7531 55.1018 49.3252 55.6309 49.3252H64.4328C64.9619 49.3252 65.3898 49.7531 65.3898 50.2822C65.3898 50.8113 64.9619 51.2393 64.4328 51.2393H56.5879V66.24H63.4758V50.7977C63.4758 50.2686 63.9037 49.8406 64.4328 49.8406C64.9619 49.8406 65.3898 50.2686 65.3898 50.7977V67.1971C65.3898 67.7262 64.9619 68.1541 64.4328 68.1541Z" fill="#E6332A"/>
<path d="M14.2434 20.6746H5.44141C4.9123 20.6746 4.48438 20.2467 4.48438 19.7176V2.80273C4.48438 2.27363 4.9123 1.8457 5.44141 1.8457H14.2434C14.7725 1.8457 15.2004 2.27363 15.2004 2.80273V9.81777C15.2004 10.3469 14.7725 10.7748 14.2434 10.7748C13.7143 10.7748 13.2863 10.3469 13.2863 9.81777V3.75977H6.39844V18.7605H13.2863V8.79922C13.2863 8.27012 13.7143 7.84219 14.2434 7.84219C14.7725 7.84219 15.2004 8.27012 15.2004 8.79922V19.7176C15.2004 20.2467 14.7725 20.6746 14.2434 20.6746Z" fill="#E6332A"/>
<path d="M67.1971 51.2396H53.1793C52.6502 51.2396 52.2223 50.8117 52.2223 50.2826V47.0998C52.2223 44.9178 50.4477 43.1418 48.2656 43.1418C47.7365 43.1418 47.3086 42.7139 47.3086 42.1848V28.167C47.3086 27.6379 47.7365 27.21 48.2656 27.21C59.2318 27.21 68.1541 36.1322 68.1541 47.0984V50.2812C68.1541 50.8117 67.7262 51.2396 67.1971 51.2396ZM54.1363 49.3256H66.24V47.0998C66.24 37.509 58.6904 29.649 49.2227 29.15V41.307C52.0062 41.765 54.1363 44.1891 54.1363 47.1012V49.3256Z" fill="#E6332A"/>
<path d="M2.46113 18.8673H16.4789C17.008 18.8673 17.4359 19.2952 17.4359 19.8243V23.0071C17.4359 25.1892 19.2105 26.9651 21.3926 26.9651C21.9217 26.9651 22.3496 27.3931 22.3496 27.9222V41.9399C22.3496 42.469 21.9217 42.897 21.3926 42.897C10.4264 42.897 1.5041 33.9747 1.5041 23.0085V19.8257C1.5041 19.2952 1.93203 18.8673 2.46113 18.8673ZM15.5219 20.7813H3.41816V23.0071C3.41816 32.5979 10.9678 40.4579 20.4355 40.9569V28.7999C17.652 28.3419 15.5219 25.9179 15.5219 23.0058V20.7813Z" fill="#E6332A"/>
</svg>
