<svg width="70" height="70" viewBox="0 0 70 70" fill="none" xmlns="http://www.w3.org/2000/svg">
<path d="M32.0992 6.2065C24.9848 3.41936 6.30815 2.50895 3.78419 2.39697L2.57381 2.70254C2.29381 2.96654 2.07547 3.43371 2.24979 3.99535V56.2989L2.25061 56.7324L2.52022 57.07C2.9554 57.6123 2.96743 57.6283 18.1889 59.078L17.6289 63.8475C17.552 64.5052 17.8385 65.1499 18.3825 65.5371C20.2737 66.8619 22.3689 67.4081 24.276 67.5195C27.8882 67.7306 29.564 64.9451 29.564 64.9451L35.9023 14.0784C36.2087 12.9424 36.2023 11.656 35.8527 10.424C35.2943 8.45936 33.9263 6.92332 32.0992 6.2065ZM27.2096 63.9613C25.7751 65.5085 22.7272 65.4157 20.1152 63.7405L25.5296 17.6273C25.5584 17.3809 25.7007 17.2465 25.8144 17.1761C25.9911 17.0689 26.2096 17.0513 26.4136 17.125C28.5208 17.9042 31.0864 18.101 33.0159 17.3602L27.2096 63.9613ZM33.0703 14.4177C32.26 15.5009 29.6015 15.6849 27.2655 14.8209C26.3495 14.48 25.3527 14.576 24.5303 15.0817C23.7248 15.5745 23.1999 16.3985 23.0887 17.3394L18.4752 56.6367C13.8913 56.1999 7.1785 55.5359 4.70731 55.2431L4.69774 4.90439C9.3001 5.14283 25.1384 6.11873 31.2023 8.49477C32.7167 9.0884 33.2207 10.4009 33.4878 11.0964C34.0086 12.4514 33.2495 14.1793 33.0703 14.4177Z" fill="#E6332A"/>
<path d="M56.1935 67.6029H66.2559C67.1144 67.6029 67.8127 66.9054 67.8127 66.0461V12.6354C67.8127 11.7763 67.1144 11.0786 66.2559 11.0786H56.1935C55.3344 11.0786 54.6367 11.7762 54.6367 12.6354V66.0461C54.6367 66.9054 55.3343 67.6029 56.1935 67.6029ZM57.0942 13.5361H65.3549V17.1153H62.8326C62.1542 17.1153 61.6038 17.6657 61.6038 18.3441C61.6038 19.0225 62.1542 19.573 62.8326 19.573H65.3549V24.0272H62.8326C62.1542 24.0272 61.6038 24.5777 61.6038 25.2561C61.6038 25.9345 62.1542 26.4849 62.8326 26.4849H65.3549V30.9408H62.8326C62.1542 30.9408 61.6038 31.4913 61.6038 32.1697C61.6038 32.8481 62.1542 33.3985 62.8326 33.3985H65.3549V37.8528H62.8326C62.1542 37.8528 61.6038 38.4032 61.6038 39.0816C61.6038 39.76 62.1542 40.3105 62.8326 40.3105H65.3549V44.7664H62.8326C62.1542 44.7664 61.6038 45.3168 61.6038 45.9952C61.6038 46.6736 62.1542 47.224 62.8326 47.224H65.3549V51.68H62.8326C62.1542 51.68 61.6038 52.2304 61.6038 52.9088C61.6038 53.5872 62.1542 54.1376 62.8326 54.1376H65.3549V58.5921H62.8326C62.1542 58.5921 61.6038 59.1425 61.6038 59.8209C61.6038 60.4993 62.1542 61.0497 62.8326 61.0497H65.3549V65.1457H57.0942V13.5361Z" fill="#E6332A"/>
<path d="M46.6322 33.5197C46.0851 32.4317 44.3154 32.4252 43.7643 33.5228C43.7643 33.5228 40.2188 41.0947 40.2188 41.3948V65.8827C40.2188 66.8315 40.9908 67.6026 41.9395 67.6026H48.4586C49.4067 67.6026 50.1786 66.8313 50.1786 65.8827V41.3948C50.1786 41.0949 46.6322 33.5197 46.6322 33.5197ZM42.6763 42.1324H47.7211V60.5547H42.6763V42.1324ZM45.1986 36.1485L46.9617 39.6749H43.4362L45.1986 36.1485ZM47.7211 65.1451H42.6763V63.0122H47.7211V65.1451Z" fill="#E6332A"/>
</svg>
