<svg width="100" height="100" viewBox="0 0 100 100" fill="none" xmlns="http://www.w3.org/2000/svg">
<g clip-path="url(#clip0_485_15957)">
<path d="M19.8593 16.6277L12.3359 24.1172V79.4189L16.5814 82.5286L19.4951 79.4189H23.8655L24.9581 82.5286H38.0694L39.4049 79.4189H60.7715L61.4999 82.5286H75.3396L76.5536 79.4189H80.6813L83.8377 82.5286L87.1155 79.4189V23.8038L79.8314 16.6277H76.5536L75.2182 19.8569H61.1357L59.6789 16.6277H39.8905L38.3122 19.8569H24.3511L23.5013 16.6277H19.8593Z" stroke="#E6332A" stroke-width="2"/>
<path d="M26.6641 20.1172L26.6641 82.4505" stroke="#E6332A" stroke-width="2"/>
<path d="M41.8203 16.6277V79.7043" stroke="#E6332A" stroke-width="2"/>
<path d="M73 19.7839L73 82.4506" stroke="#E6332A" stroke-width="2"/>
<path d="M57.8594 16.6277V79.7043" stroke="#E6332A" stroke-width="2"/>
</g>
<defs>
<clipPath id="clip0_485_15957">
<rect width="78" height="67.7838" fill="white" transform="translate(11 16)"/>
</clipPath>
</defs>
</svg>
