<svg width="100" height="100" viewBox="0 0 100 100" fill="none" xmlns="http://www.w3.org/2000/svg">
<g clip-path="url(#clip0_485_15964)">
<path d="M55.6398 75.2314L68.2941 80.7166M68.2941 80.7166L72.037 77.1777V50.6361M68.2941 80.7166V54.3519M72.037 50.6361L68.2941 54.3519M72.037 50.6361L66.6901 48.2482M17.3203 31.88L20.5285 27.6333L41.5281 37.0114M17.3203 31.88V58.9525L23.7366 61.6066M17.3203 31.88L68.2941 54.3519M58.135 44.4277L62.0561 40.1964L67.0465 42.4966M58.135 44.4277L63.1255 46.6564M58.135 44.4277L49.7582 40.6868M67.0465 42.4966L63.1255 46.6564M67.0465 42.4966L66.6901 48.2482M63.1255 46.6564L66.6901 48.2482M41.5281 37.0114L45.6589 32.5877L50.1147 34.7111M41.5281 37.0114L46.5501 39.2541M50.1147 34.7111L46.5501 39.2541M50.1147 34.7111L49.7582 40.6868M46.5501 39.2541L49.7582 40.6868" stroke="#E6332A" stroke-width="2"/>
<path d="M28.75 30.7085V19.8706M28.75 19.8706L31.9792 16.1997L52.9689 25.3212M28.75 19.8706L79.6993 42.2456M83.4667 38.5747V65.1451L80.0581 68.4664M83.4667 38.5747L79.6993 42.2456M83.4667 38.5747L80.9551 37.4833M80.0581 68.4664C80.0581 68.4664 75.6145 66.4421 72.8821 65.1451M80.0581 68.4664L79.6993 42.2456M52.9689 25.3212L59.2478 18.8218L64.271 21.269M52.9689 25.3212L57.992 27.5042M64.271 21.269L57.992 27.5042M64.271 21.269V30.0093V30.2328M57.992 27.5042L64.271 30.2328M64.271 30.2328L69.8324 32.6496M69.8324 32.6496L75.7525 26.1636L80.9551 28.6109M69.8324 32.6496L75.3937 35.0665M80.9551 28.6109V37.4833M80.9551 28.6109L75.3937 35.0665M80.9551 37.4833L75.3937 35.0665" stroke="#E6332A" stroke-width="2"/>
<path d="M39.3672 67.6499L41.8172 68.4666" stroke="#E6332A" stroke-width="2"/>
<path d="M29.9286 77.4499L40.442 67.8931L41.0052 46.8683M29.9286 77.4499L24.6719 75.1594L24.8596 55.2087M29.9286 77.4499V57.4676M24.8596 55.2087L36.124 44.7832L41.0052 46.8683M24.8596 55.2087L29.9286 57.4676M41.0052 46.8683L29.9286 57.4676" stroke="#E6332A" stroke-width="2"/>
<path d="M41.8203 61.8903V82.509L46.3703 84.7282M41.8203 61.8903L51.7953 51.3167L56.5203 53.4314M41.8203 61.8903L46.3703 64.0051M56.5203 53.4314V74.2263L46.5453 84.8L46.3703 84.7282M56.5203 53.4314L46.3703 64.0051M46.3703 64.0051V84.7282" stroke="#E6332A" stroke-width="2"/>
</g>
<defs>
<clipPath id="clip0_485_15964">
<rect width="69.3333" height="72.6667" fill="white" transform="translate(15.3359 13.3333)"/>
</clipPath>
</defs>
</svg>
