<svg width="100" height="100" viewBox="0 0 100 100" fill="none" xmlns="http://www.w3.org/2000/svg">
<path d="M94.845 44.3996V77.616H53.5502M94.845 44.3996L73.6542 21.5293M94.845 44.3996H53.5502M73.6542 21.5293H26.3825L4.64844 44.3996M73.6542 21.5293L53.5502 44.3996M4.64844 44.3996V77.616H53.5502M4.64844 44.3996H53.5502M53.5502 77.616V44.3996" stroke="#E6332A" stroke-width="2"/>
<path d="M22.0312 25.8855H69.8463" stroke="#E6332A" stroke-width="2"/>
<path d="M16.6016 31.3308H64.9599" stroke="#E6332A" stroke-width="2"/>
<path d="M11.168 37.8652H59.5264" stroke="#E6332A" stroke-width="2"/>
<path d="M4.64844 52.0227H53.5502" stroke="#E6332A" stroke-width="2"/>
<path d="M4.64844 60.7354H53.5502" stroke="#E6332A" stroke-width="2"/>
<path d="M4.64844 69.448H53.5502" stroke="#E6332A" stroke-width="2"/>
<path d="M16.6016 44.3994V77.6158" stroke="#E6332A" stroke-width="2"/>
<path d="M28.5547 44.3994V77.6158" stroke="#E6332A" stroke-width="2"/>
<path d="M40.5078 44.3994V77.6158" stroke="#E6332A" stroke-width="2"/>
<path d="M60.7226 21.5075L40.6661 44.4155" stroke="#E6332A" stroke-width="2"/>
<path d="M48.8471 21.5078L28.5635 44.4157" stroke="#E6332A" stroke-width="2"/>
<path d="M36.6133 21.5079L16.4626 44.4159" stroke="#E6332A" stroke-width="2"/>
</svg>
