<svg width="45" height="40" viewBox="0 0 45 40" fill="none" xmlns="http://www.w3.org/2000/svg">
<path d="M45 20C45 19.6354 44.8698 19.3229 44.6094 19.0625L23.3594 0.3125C23.099 0.104167 22.8125 0 22.5 0C22.1875 0 21.901 0.104167 21.6406 0.3125L0.390625 19.0625C0.130208 19.3229 0 19.6354 0 20C0.0520833 20.7812 0.46875 21.1979 1.25 21.25C1.5625 21.25 1.84896 21.1458 2.10938 20.9375L5 18.2812V36.25C5.05208 37.2917 5.41667 38.1771 6.09375 38.9062C6.82292 39.5833 7.70833 39.9479 8.75 40H15C16.0417 39.9479 16.9271 39.5833 17.6562 38.9062C18.3333 38.1771 18.6979 37.2917 18.75 36.25V27.5H26.1719L26.25 36.25C26.3021 37.2917 26.6667 38.1771 27.3438 38.9062C28.0729 39.5833 28.9583 39.9479 30 40H36.25C37.2917 39.9479 38.1771 39.5833 38.9062 38.9062C39.5833 38.1771 39.9479 37.2917 40 36.25V18.2812L42.8906 20.9375C43.151 21.1458 43.4375 21.25 43.75 21.25C44.5312 21.1979 44.9479 20.7812 45 20ZM37.5 16.25V36.25C37.4479 37.0312 37.0312 37.4479 36.25 37.5H30C29.2188 37.4479 28.8021 37.0312 28.75 36.25V27.5C28.75 26.7708 28.5156 26.1719 28.0469 25.7031C27.5781 25.2344 26.9792 25 26.25 25H18.75C18.0208 25 17.4219 25.2344 16.9531 25.7031C16.4844 26.1719 16.25 26.7708 16.25 27.5V36.25C16.1979 37.0312 15.7812 37.4479 15 37.5H8.75C7.96875 37.4479 7.55208 37.0312 7.5 36.25V16.25C7.5 16.25 7.5 16.224 7.5 16.1719L22.5 2.89062L37.5 16.1719C37.5 16.224 37.5 16.25 37.5 16.25Z" fill="#E6332A"/>
</svg>
