<svg width="51" height="40" viewBox="0 0 51 40" fill="none" xmlns="http://www.w3.org/2000/svg">
<path d="M18.3594 19.9219H11.6406C10.651 20.026 10.1042 20.599 10 21.6406V28.3594C10.1042 29.349 10.651 29.8958 11.6406 30H18.3594C19.349 29.8958 19.8958 29.349 20 28.3594V21.6406C19.8958 20.599 19.349 20.026 18.3594 19.9219ZM17.5 27.4219H12.5V22.5H17.5V27.4219ZM16.875 8.20312C16.3021 7.73438 15.651 7.5 14.9219 7.5C14.2448 7.5 13.6719 7.73438 13.2031 8.20312L1.32812 18.9844C0.442708 19.7656 0 20.7552 0 21.9531V35C0.0520833 36.4062 0.546875 37.5781 1.48438 38.5156C2.42188 39.4531 3.59375 39.9479 5 40H24.9219C26.3281 39.9479 27.5 39.4531 28.4375 38.5156C29.375 37.5781 29.8698 36.4062 29.9219 35L30 21.9531C30 20.7552 29.5573 19.7656 28.6719 18.9844L16.875 8.20312ZM27.4219 35C27.4219 35.7292 27.1875 36.3281 26.7188 36.7969C26.25 37.2656 25.651 37.5 24.9219 37.5H5C4.27083 37.5 3.67188 37.2656 3.20312 36.7969C2.73438 36.3281 2.5 35.7292 2.5 35V21.9531C2.5 21.4844 2.68229 21.0938 3.04688 20.7812L14.9219 9.92188L26.9531 20.7812C27.3177 21.1458 27.5 21.5365 27.5 21.9531L27.4219 35ZM49.0625 33.8281L44.2969 28.2812C45.651 28.1771 46.6667 27.5 47.3438 26.25C47.8646 24.9479 47.7083 23.75 46.875 22.6562L41.6406 16.5625H42.1875C43.5417 16.5104 44.5052 15.9115 45.0781 14.7656C45.4948 13.6198 45.3125 12.6042 44.5312 11.7188L34.6875 0.9375C34.0625 0.3125 33.2812 0 32.3438 0C31.4062 0 30.625 0.3125 30 0.9375L24.0625 7.42188C23.5938 8.04688 23.6198 8.64583 24.1406 9.21875C24.7656 9.63542 25.3646 9.60938 25.9375 9.14062L31.875 2.65625C32.1875 2.39583 32.5 2.39583 32.8125 2.65625L42.7344 13.3594C42.8385 13.5156 42.8646 13.6458 42.8125 13.75C42.7604 13.9062 42.5521 14.0104 42.1875 14.0625H38.9844C38.4635 14.0625 38.0729 14.2969 37.8125 14.7656C37.6042 15.2344 37.6562 15.6771 37.9688 16.0938L44.9219 24.2969C45.1823 24.7135 45.2344 25.026 45.0781 25.2344C45.026 25.4427 44.7396 25.625 44.2188 25.7812H41.5625C41.0417 25.7812 40.651 26.0156 40.3906 26.4844C40.2344 26.9531 40.3125 27.3958 40.625 27.8125L47.1875 35.4688C47.5521 36.0938 47.6042 36.5365 47.3438 36.7969C47.2917 37.1094 46.9531 37.3438 46.3281 37.5H33.75C32.9688 37.5521 32.5521 37.9688 32.5 38.75C32.5521 39.5312 32.9688 39.9479 33.75 40H46.3281C47.8385 39.9479 48.9583 39.2188 49.6875 37.8125C50.2604 36.3542 50.0521 35.026 49.0625 33.8281Z" fill="#E6332A"/>
</svg>
