<svg width="384" height="375" viewBox="0 0 384 375" fill="none" xmlns="http://www.w3.org/2000/svg">
<g opacity="0.1" clip-path="url(#clip0_458_5103)">
<path fill-rule="evenodd" clip-rule="evenodd" d="M142.602 145.015L188.9 0L234.893 144.044L384.609 143.779L263.344 232.5L309.86 376.324L188.9 287.118L67.9402 376.324L114.456 232.5L21.5547 164.515L28.231 143.824L132.566 220.147L138.587 224.559L136.275 231.706L107.126 321.838L182.878 265.985L188.9 261.529L194.922 265.985L270.675 321.838L241.526 231.706L239.213 224.559L245.235 220.147L321.206 164.559L227.431 164.735L219.969 164.779L217.7 157.588L188.9 67.3676L164.115 145.015H142.602Z" fill="white"/>
</g>
<defs>
<clipPath id="clip0_458_5103">
<rect width="384" height="375" fill="white"/>
</clipPath>
</defs>
</svg>
