<svg width="185" height="185" viewBox="0 0 185 185" fill="none" xmlns="http://www.w3.org/2000/svg">
<g opacity="0.5">
<path d="M30.3516 182.109H2.89062V2.89062H30.3516V182.109ZM8.67188 176.328H24.5703V8.67188H8.67188V176.328Z" fill="white"/>
<path d="M60.7031 182.109H33.2422V108.398H60.7031V182.109ZM39.0234 176.328H54.9219V114.18H39.0234V176.328Z" fill="white"/>
<path d="M60.7031 105.508H33.2422V2.89062H60.7031V105.508ZM39.0234 99.7266H54.9219V8.67188H39.0234V99.7266Z" fill="white"/>
<path d="M30.3516 182.109H2.89062V2.89062H30.3516V182.109ZM8.67188 176.328H24.5703V8.67188H8.67188V176.328Z" fill="white"/>
<path d="M60.7031 182.109H33.2422V108.398H60.7031V182.109ZM39.0234 176.328H54.9219V114.18H39.0234V176.328Z" fill="white"/>
<path d="M60.7031 105.508H33.2422V2.89062H60.7031V105.508ZM39.0234 99.7266H54.9219V8.67188H39.0234V99.7266Z" fill="white"/>
<g opacity="0.3">
<path d="M43.3594 97.5586C44.5567 97.5586 45.5273 96.588 45.5273 95.3906C45.5273 94.1933 44.5567 93.2227 43.3594 93.2227C42.162 93.2227 41.1914 94.1933 41.1914 95.3906C41.1914 96.588 42.162 97.5586 43.3594 97.5586Z" fill="white"/>
</g>
<g opacity="0.3">
<path d="M50.5859 97.5586C51.7833 97.5586 52.7539 96.588 52.7539 95.3906C52.7539 94.1933 51.7833 93.2227 50.5859 93.2227C49.3886 93.2227 48.418 94.1933 48.418 95.3906C48.418 96.588 49.3886 97.5586 50.5859 97.5586Z" fill="white"/>
</g>
<g opacity="0.3">
<path d="M13.0078 174.16C14.2051 174.16 15.1758 173.19 15.1758 171.992C15.1758 170.795 14.2051 169.824 13.0078 169.824C11.8105 169.824 10.8398 170.795 10.8398 171.992C10.8398 173.19 11.8105 174.16 13.0078 174.16Z" fill="white"/>
</g>
<g opacity="0.3">
<path d="M20.2344 174.16C21.4317 174.16 22.4023 173.19 22.4023 171.992C22.4023 170.795 21.4317 169.824 20.2344 169.824C19.037 169.824 18.0664 170.795 18.0664 171.992C18.0664 173.19 19.037 174.16 20.2344 174.16Z" fill="white"/>
</g>
<g opacity="0.3">
<path d="M13.0078 15.1758C14.2051 15.1758 15.1758 14.2051 15.1758 13.0078C15.1758 11.8105 14.2051 10.8398 13.0078 10.8398C11.8105 10.8398 10.8398 11.8105 10.8398 13.0078C10.8398 14.2051 11.8105 15.1758 13.0078 15.1758Z" fill="white"/>
</g>
<g opacity="0.3">
<path d="M20.2344 15.1758C21.4317 15.1758 22.4023 14.2051 22.4023 13.0078C22.4023 11.8105 21.4317 10.8398 20.2344 10.8398C19.037 10.8398 18.0664 11.8105 18.0664 13.0078C18.0664 14.2051 19.037 15.1758 20.2344 15.1758Z" fill="white"/>
</g>
<g opacity="0.3">
<path d="M43.3594 120.684C44.5567 120.684 45.5273 119.713 45.5273 118.516C45.5273 117.318 44.5567 116.348 43.3594 116.348C42.162 116.348 41.1914 117.318 41.1914 118.516C41.1914 119.713 42.162 120.684 43.3594 120.684Z" fill="white"/>
</g>
<g opacity="0.3">
<path d="M50.5859 120.684C51.7833 120.684 52.7539 119.713 52.7539 118.516C52.7539 117.318 51.7833 116.348 50.5859 116.348C49.3886 116.348 48.418 117.318 48.418 118.516C48.418 119.713 49.3886 120.684 50.5859 120.684Z" fill="white"/>
</g>
<path d="M91.0547 182.109H63.5938V2.89062H91.0547V182.109ZM69.375 176.328H85.2734V8.67188H69.375V176.328Z" fill="white"/>
<path d="M121.406 182.109H93.9453V79.4922H121.406V182.109ZM99.7266 176.328H115.625V85.2734H99.7266V176.328Z" fill="white"/>
<path d="M121.406 76.6016H93.9453V2.89062H121.406V76.6016ZM99.7266 70.8203H115.625V8.67188H99.7266V70.8203Z" fill="white"/>
<path d="M91.0547 182.109H63.5938V2.89062H91.0547V182.109ZM69.375 176.328H85.2734V8.67188H69.375V176.328Z" fill="white"/>
<path d="M121.406 182.109H93.9453V79.4922H121.406V182.109ZM99.7266 176.328H115.625V85.2734H99.7266V176.328Z" fill="white"/>
<path d="M121.406 76.6016H93.9453V2.89062H121.406V76.6016ZM99.7266 70.8203H115.625V8.67188H99.7266V70.8203Z" fill="white"/>
<g opacity="0.3">
<path d="M104.062 68.6523C105.26 68.6523 106.23 67.6817 106.23 66.4844C106.23 65.287 105.26 64.3164 104.062 64.3164C102.865 64.3164 101.895 65.287 101.895 66.4844C101.895 67.6817 102.865 68.6523 104.062 68.6523Z" fill="white"/>
</g>
<g opacity="0.3">
<path d="M111.289 68.6523C112.486 68.6523 113.457 67.6817 113.457 66.4844C113.457 65.287 112.486 64.3164 111.289 64.3164C110.092 64.3164 109.121 65.287 109.121 66.4844C109.121 67.6817 110.092 68.6523 111.289 68.6523Z" fill="white"/>
</g>
<g opacity="0.3">
<path d="M73.7109 174.16C74.9083 174.16 75.8789 173.19 75.8789 171.992C75.8789 170.795 74.9083 169.824 73.7109 169.824C72.5136 169.824 71.543 170.795 71.543 171.992C71.543 173.19 72.5136 174.16 73.7109 174.16Z" fill="white"/>
</g>
<g opacity="0.3">
<path d="M80.9375 174.16C82.1348 174.16 83.1055 173.19 83.1055 171.992C83.1055 170.795 82.1348 169.824 80.9375 169.824C79.7402 169.824 78.7695 170.795 78.7695 171.992C78.7695 173.19 79.7402 174.16 80.9375 174.16Z" fill="white"/>
</g>
<g opacity="0.3">
<path d="M73.7109 15.1758C74.9083 15.1758 75.8789 14.2051 75.8789 13.0078C75.8789 11.8105 74.9083 10.8398 73.7109 10.8398C72.5136 10.8398 71.543 11.8105 71.543 13.0078C71.543 14.2051 72.5136 15.1758 73.7109 15.1758Z" fill="white"/>
</g>
<g opacity="0.3">
<path d="M80.9375 15.1758C82.1348 15.1758 83.1055 14.2051 83.1055 13.0078C83.1055 11.8105 82.1348 10.8398 80.9375 10.8398C79.7402 10.8398 78.7695 11.8105 78.7695 13.0078C78.7695 14.2051 79.7402 15.1758 80.9375 15.1758Z" fill="white"/>
</g>
<g opacity="0.3">
<path d="M104.062 91.7773C105.26 91.7773 106.23 90.8067 106.23 89.6094C106.23 88.412 105.26 87.4414 104.062 87.4414C102.865 87.4414 101.895 88.412 101.895 89.6094C101.895 90.8067 102.865 91.7773 104.062 91.7773Z" fill="white"/>
</g>
<g opacity="0.3">
<path d="M111.289 91.7773C112.486 91.7773 113.457 90.8067 113.457 89.6094C113.457 88.412 112.486 87.4414 111.289 87.4414C110.092 87.4414 109.121 88.412 109.121 89.6094C109.121 90.8067 110.092 91.7773 111.289 91.7773Z" fill="white"/>
</g>
<path d="M151.758 182.109H124.297V2.89062H151.758V182.109ZM130.078 176.328H145.977V8.67188H130.078V176.328Z" fill="white"/>
<path d="M182.109 182.109H154.648V137.305H182.109V182.109ZM160.43 176.328H176.328V143.086H160.43V176.328Z" fill="white"/>
<path d="M182.109 134.414H154.648V2.89062H182.109V134.414ZM160.43 128.633H176.328V8.67188H160.43V128.633Z" fill="white"/>
<path d="M151.758 182.109H124.297V2.89062H151.758V182.109ZM130.078 176.328H145.977V8.67188H130.078V176.328Z" fill="white"/>
<path d="M182.109 182.109H154.648V137.305H182.109V182.109ZM160.43 176.328H176.328V143.086H160.43V176.328Z" fill="white"/>
<path d="M182.109 134.414H154.648V2.89062H182.109V134.414ZM160.43 128.633H176.328V8.67188H160.43V128.633Z" fill="white"/>
<g opacity="0.3">
<path d="M164.766 126.465C165.963 126.465 166.934 125.494 166.934 124.297C166.934 123.1 165.963 122.129 164.766 122.129C163.568 122.129 162.598 123.1 162.598 124.297C162.598 125.494 163.568 126.465 164.766 126.465Z" fill="white"/>
</g>
<g opacity="0.3">
<path d="M171.992 126.465C173.19 126.465 174.16 125.494 174.16 124.297C174.16 123.1 173.19 122.129 171.992 122.129C170.795 122.129 169.824 123.1 169.824 124.297C169.824 125.494 170.795 126.465 171.992 126.465Z" fill="white"/>
</g>
<g opacity="0.3">
<path d="M134.414 174.16C135.611 174.16 136.582 173.19 136.582 171.992C136.582 170.795 135.611 169.824 134.414 169.824C133.217 169.824 132.246 170.795 132.246 171.992C132.246 173.19 133.217 174.16 134.414 174.16Z" fill="white"/>
</g>
<g opacity="0.3">
<path d="M141.641 174.16C142.838 174.16 143.809 173.19 143.809 171.992C143.809 170.795 142.838 169.824 141.641 169.824C140.443 169.824 139.473 170.795 139.473 171.992C139.473 173.19 140.443 174.16 141.641 174.16Z" fill="white"/>
</g>
<g opacity="0.3">
<path d="M134.414 15.1758C135.611 15.1758 136.582 14.2051 136.582 13.0078C136.582 11.8105 135.611 10.8398 134.414 10.8398C133.217 10.8398 132.246 11.8105 132.246 13.0078C132.246 14.2051 133.217 15.1758 134.414 15.1758Z" fill="white"/>
</g>
<g opacity="0.3">
<path d="M141.641 15.1758C142.838 15.1758 143.809 14.2051 143.809 13.0078C143.809 11.8105 142.838 10.8398 141.641 10.8398C140.443 10.8398 139.473 11.8105 139.473 13.0078C139.473 14.2051 140.443 15.1758 141.641 15.1758Z" fill="white"/>
</g>
<g opacity="0.3">
<path d="M164.766 149.59C165.963 149.59 166.934 148.619 166.934 147.422C166.934 146.225 165.963 145.254 164.766 145.254C163.568 145.254 162.598 146.225 162.598 147.422C162.598 148.619 163.568 149.59 164.766 149.59Z" fill="white"/>
</g>
<g opacity="0.3">
<path d="M171.992 149.59C173.19 149.59 174.16 148.619 174.16 147.422C174.16 146.225 173.19 145.254 171.992 145.254C170.795 145.254 169.824 146.225 169.824 147.422C169.824 148.619 170.795 149.59 171.992 149.59Z" fill="white"/>
</g>
</g>
</svg>
