<svg xmlns="http://www.w3.org/2000/svg" xmlns:xlink="http://www.w3.org/1999/xlink" width="0" height="0" style="position:absolute">
	
		<symbol id="construction" viewBox="0 0 30 30">
			<g clip-path="url(#a)" fill="#E6332A" stroke="#E6332A" stroke-width=".5"><path d="M20.024 13.85v2.452H9.974V13.85h10.05zm.357 3.772a.662.662 0 0 0 .152-.018.66.66 0 0 0 .812-.643V13.19a.66.66 0 0 0-.66-.66H9.313a.66.66 0 0 0-.66.66v3.772c0 .364.295.66.66.66h11.067zM24.503 22.21h2.452v5.929h-2.452v-5.93zm3.772-.44a.66.66 0 0 0-.009-.11.659.659 0 0 0-.651-.77h-3.772a.66.66 0 0 0-.66.66v7.249c0 .365.295.66.66.66h3.772a.66.66 0 0 0 .66-.66V21.77zM6.764 4.208V1.2a.66.66 0 0 0-.66-.66H2.332a.66.66 0 0 0-.66.66v7.25c0 .364.295.66.66.66h3.772a.66.66 0 0 0 .66-.66V4.207zm-1.32 0V7.79H2.992V1.861h2.452v2.347z"></path><path d="M22.792 22.21h6.007a.66.66 0 0 0 .66-.66v-1.365c0-4.838-3.935-8.774-8.773-8.774a.66.66 0 0 0-.66.66v6.008c0 .365.295.66.66.66.797 0 1.445.65 1.445 1.447v1.364c0 .364.296.66.66.66zm5.347-2.024v.704h-4.687v-.704a2.77 2.77 0 0 0-2.106-2.687v-4.738c3.801.335 6.793 3.537 6.793 7.425zM7.063 7.836H1.055a.66.66 0 0 0-.66.66v1.365c0 4.838 3.936 8.773 8.774 8.773a.66.66 0 0 0 .66-.66v-6.007a.66.66 0 0 0-.66-.66c-.797 0-1.446-.65-1.446-1.447V8.496a.66.66 0 0 0-.66-.66zM1.715 9.86v-.704h4.688v.704a2.77 2.77 0 0 0 2.106 2.687v4.738c-3.802-.335-6.794-3.537-6.794-7.425z"></path></g><defs><clipPath id="a"><path fill="#fff" d="M0 0h30v30H0z"></path></clipPath></defs>
		</symbol>
	
		<symbol id="roller" viewBox="0 0 30 30">
			<path clip-rule="evenodd" d="M24.95 22.015c-.342.343-.9.343-1.2 0L8.237 6.5c-.343-.343-.343-.9 0-1.2l3.043-3.043c.343-.343.9-.343 1.2 0l15.515 15.515c.343.343.343.9 0 1.2l-3.043 3.043z" stroke="#E6332A" stroke-width="2"></path><path d="M8.836 2.857l.9.9M26.494 20.472l1.2 1.243-3.643 3.643-10.972-7.929-2.143 2.143" stroke="#E6332A" stroke-width="2"></path><path clip-rule="evenodd" d="M4.68 28.272c-.386.386-1.158.3-1.715-.257l-.471-.471c-.557-.558-.643-1.286-.257-1.715l7.071-7.071c.386-.386 1.158-.3 1.715.257l.471.471c.557.557.643 1.286.257 1.715L4.68 28.272z" stroke="#E6332A" stroke-width="2"></path>
		</symbol>
	
</svg>
