<svg xmlns="http://www.w3.org/2000/svg" xmlns:xlink="http://www.w3.org/1999/xlink" width="0" height="0" style="position:absolute">
	
		<symbol id="construction" viewBox="0 0 30 30">
			<g clip-path="url(#a)" fill="#E6332A" stroke="#E6332A" stroke-width=".5"><path d="M20.024 13.85v2.452H9.974V13.85h10.05zm.357 3.772a.662.662 0 0 0 .152-.018.66.66 0 0 0 .812-.643V13.19a.66.66 0 0 0-.66-.66H9.313a.66.66 0 0 0-.66.66v3.772c0 .364.295.66.66.66h11.067zM24.503 22.21h2.452v5.929h-2.452v-5.93zm3.772-.44a.66.66 0 0 0-.009-.11.659.659 0 0 0-.651-.77h-3.772a.66.66 0 0 0-.66.66v7.249c0 .365.295.66.66.66h3.772a.66.66 0 0 0 .66-.66V21.77zM6.764 4.208V1.2a.66.66 0 0 0-.66-.66H2.332a.66.66 0 0 0-.66.66v7.25c0 .364.295.66.66.66h3.772a.66.66 0 0 0 .66-.66V4.207zm-1.32 0V7.79H2.992V1.861h2.452v2.347z"></path><path d="M22.792 22.21h6.007a.66.66 0 0 0 .66-.66v-1.365c0-4.838-3.935-8.774-8.773-8.774a.66.66 0 0 0-.66.66v6.008c0 .365.295.66.66.66.797 0 1.445.65 1.445 1.447v1.364c0 .364.296.66.66.66zm5.347-2.024v.704h-4.687v-.704a2.77 2.77 0 0 0-2.106-2.687v-4.738c3.801.335 6.793 3.537 6.793 7.425zM7.063 7.836H1.055a.66.66 0 0 0-.66.66v1.365c0 4.838 3.936 8.773 8.774 8.773a.66.66 0 0 0 .66-.66v-6.007a.66.66 0 0 0-.66-.66c-.797 0-1.446-.65-1.446-1.447V8.496a.66.66 0 0 0-.66-.66zM1.715 9.86v-.704h4.688v.704a2.77 2.77 0 0 0 2.106 2.687v4.738c-3.802-.335-6.794-3.537-6.794-7.425z"></path></g><defs><clipPath id="a"><path fill="#fff" d="M0 0h30v30H0z"></path></clipPath></defs>
		</symbol>
	
		<symbol id="equip-1" viewBox="0 0 100 100">
			<path d="M94.845 44.4v33.216H53.55M94.845 44.4l-21.19-22.87m21.19 22.87H53.55m20.104-22.87H26.383L4.648 44.4m69.006-22.87L53.55 44.4m-48.902 0v33.216H53.55M4.648 44.4H53.55m0 33.216V44.4M22.031 25.886h47.815M16.602 31.33H64.96M11.168 37.865h48.358M4.648 52.023H53.55M4.648 60.735H53.55M4.648 69.448H53.55M16.602 44.4v33.216M28.555 44.4v33.216M40.508 44.4v33.216M60.723 21.508L40.666 44.416M48.847 21.508L28.563 44.416M36.613 21.508l-20.15 22.908" stroke="#E6332A" stroke-width="2"></path>
		</symbol>
	
		<symbol id="equip-2" viewBox="0 0 100 100">
			<g clip-path="url(#a)" stroke="#E6332A" stroke-width="2"><path d="M19.86 16.628l-7.524 7.49v55.3l4.245 3.11 2.914-3.11h4.37l1.093 3.11H38.07l1.336-3.11h21.367l.728 3.11h13.84l1.214-3.11h4.127l3.157 3.11 3.278-3.11V23.805l-7.285-7.176h-3.277l-1.336 3.229H61.136l-1.457-3.23H39.89l-1.579 3.23h-13.96l-.85-3.23h-3.643zM26.664 20.117v62.334M41.82 16.628v63.076M73 19.784V82.45M57.86 16.628v63.076"></path></g><defs><clipPath id="a"><path fill="#fff" transform="translate(11 16)" d="M0 0h78v67.784H0z"></path></clipPath></defs>
		</symbol>
	
		<symbol id="equip-3" viewBox="0 0 100 100">
			<g clip-path="url(#a)" stroke="#E6332A" stroke-width="2"><path d="M55.64 75.231l12.654 5.486m0 0l3.743-3.54v-26.54m-3.743 30.08V54.352m3.743-3.716l-3.743 3.716m3.743-3.716l-5.347-2.388M17.32 31.88l3.209-4.247 21 9.378M17.32 31.88v27.073l6.417 2.654M17.32 31.88l50.974 22.472m-10.159-9.924l3.921-4.232 4.99 2.3m-8.911 1.932l4.99 2.228m-4.99-2.228l-8.377-3.741m17.288 1.81l-3.92 4.16m3.92-4.16l-.356 5.751m-3.564-1.592l3.564 1.592M41.528 37.011l4.13-4.423 4.457 2.123m-8.587 2.3l5.022 2.243m3.565-4.543l-3.565 4.543m3.565-4.543l-.357 5.976m-3.208-1.433l3.208 1.433M28.75 30.709V19.87m0 0l3.23-3.671 20.989 9.121m-24.219-5.45L79.7 42.246m3.767-3.671v26.57l-3.409 3.321m3.409-29.891l-3.768 3.67m3.768-3.67l-2.512-1.092m-.897 30.983s-4.444-2.024-7.176-3.32m7.176 3.32l-.359-26.22M52.97 25.32l6.279-6.5 5.023 2.448m-11.302 4.052l5.023 2.183m6.279-6.235l-6.279 6.235m6.279-6.235v8.964m-6.279-2.729l6.279 2.729m0 0l5.561 2.417m0 0l5.92-6.486 5.203 2.447M69.832 32.65l5.562 2.416m5.561-6.455v8.872m0-8.872l-5.561 6.455m5.561 2.417l-5.561-2.416M39.367 67.65l2.45.817M29.929 77.45l10.513-9.557.563-21.025M29.93 77.45l-5.257-2.29.188-19.951m5.069 22.24V57.469m-5.07-2.26l11.265-10.425 4.881 2.085m-16.145 8.34l5.069 2.26m11.076-10.6l-11.076 10.6M41.82 61.89V82.51l4.55 2.22M41.82 61.89l9.975-10.573 4.725 2.114m-14.7 8.46l4.55 2.114m10.15-10.574v20.795L46.545 84.8l-.175-.072m10.15-31.297L46.37 64.005m0 0v20.723"></path></g><defs><clipPath id="a"><path fill="#fff" transform="translate(15.336 13.333)" d="M0 0h69.333v72.667H0z"></path></clipPath></defs>
		</symbol>
	
		<symbol id="roller" viewBox="0 0 30 30">
			<path clip-rule="evenodd" d="M24.95 22.015c-.342.343-.9.343-1.2 0L8.237 6.5c-.343-.343-.343-.9 0-1.2l3.043-3.043c.343-.343.9-.343 1.2 0l15.515 15.515c.343.343.343.9 0 1.2l-3.043 3.043z" stroke="#E6332A" stroke-width="2"></path><path d="M8.836 2.857l.9.9M26.494 20.472l1.2 1.243-3.643 3.643-10.972-7.929-2.143 2.143" stroke="#E6332A" stroke-width="2"></path><path clip-rule="evenodd" d="M4.68 28.272c-.386.386-1.158.3-1.715-.257l-.471-.471c-.557-.558-.643-1.286-.257-1.715l7.071-7.071c.386-.386 1.158-.3 1.715.257l.471.471c.557.557.643 1.286.257 1.715L4.68 28.272z" stroke="#E6332A" stroke-width="2"></path>
		</symbol>
	
</svg>
