<svg xmlns="http://www.w3.org/2000/svg" xmlns:xlink="http://www.w3.org/1999/xlink" width="0" height="0" style="position:absolute">
	
		<symbol id="ad-l-1" viewBox="0 0 69 69">
			<path d="M28.531 5.563c-12.687 0-22.968 10.28-22.968 22.968S15.842 51.5 28.53 51.5 51.5 41.219 51.5 28.531c0-12.687-10.281-22.968-22.969-22.968zm0 43.75c-11.484 0-20.781-9.297-20.781-20.782 0-11.484 9.297-20.781 20.781-20.781 11.485 0 20.782 9.297 20.782 20.781 0 11.485-9.297 20.782-20.782 20.782z" fill="#E6332A"></path><path d="M51.227 49.695l-1.86-1.86C54.07 42.75 56.97 35.97 56.97 28.532 56.969 12.836 44.227.094 28.53.094 12.836.094.094 12.836.094 28.53c0 15.696 12.742 28.438 28.437 28.438 7.438 0 14.219-2.899 19.305-7.602l1.86 1.86-2.9 2.898L61.07 68.398l7.328-7.328-14.273-14.273-2.898 2.898zM28.53 54.781c-14.492 0-26.25-11.758-26.25-26.25s11.758-26.25 26.25-26.25 26.25 11.758 26.25 26.25-11.758 26.25-26.25 26.25zm32.54 10.555L49.858 54.125l4.266-4.266 11.21 11.211-4.265 4.266z" fill="#E6332A"></path><path d="M37.281 17.758H32.36v2.078l-3.828-4.375-12.25 11.758 1.532 1.531.875-.875v12.14H37.28v-12.14l.875.875 1.532-1.531-2.407-2.407v-7.054zm-2.187 20.07H20.875v-12.14l7.11-7.11 6.562 6.563v-5.196h.547v17.883z" fill="#E6332A"></path>
		</symbol>
	
		<symbol id="ad-l-2" viewBox="0 0 70 70">
			<path d="M60.696 40.533a.958.958 0 0 1-.82-.46 13.617 13.617 0 0 0-7.5-5.914.956.956 0 1 1 .58-1.822 15.528 15.528 0 0 1 8.554 6.743.957.957 0 0 1-.814 1.453zM17.336 37.709a.985.985 0 0 1-.291-.046 15.57 15.57 0 0 1-9.337-8.199.957.957 0 0 1 1.732-.813 13.652 13.652 0 0 0 8.186 7.189.958.958 0 0 1-.29 1.868zM48.265 40.534a.956.956 0 0 1-.957-.957v-7.845H22.69v6.888h24.867a.956.956 0 1 1 0 1.914H21.734a.956.956 0 0 1-.957-.957v-8.802c0-.529.428-.957.957-.957h26.53c.53 0 .958.428.958.957v8.802a.957.957 0 0 1-.957.957zM64.433 68.154H55.63a.956.956 0 0 1-.957-.957V50.282c0-.529.428-.957.957-.957h8.802a.956.956 0 1 1 0 1.914h-7.845V66.24h6.888V50.798a.956.956 0 1 1 1.914 0v16.4c0 .528-.428.956-.957.956zM14.243 20.675H5.441a.956.956 0 0 1-.957-.957V2.803c0-.53.428-.957.957-.957h8.802c.53 0 .957.428.957.957v7.015a.956.956 0 1 1-1.914 0V3.76H6.398v15h6.888V8.8a.956.956 0 1 1 1.914 0v10.918c0 .529-.427.957-.957.957z" fill="#E6332A"></path><path d="M67.197 51.24H53.18a.956.956 0 0 1-.957-.957V47.1a3.962 3.962 0 0 0-3.956-3.958.956.956 0 0 1-.957-.957V28.167c0-.53.428-.957.957-.957 10.966 0 19.888 8.922 19.888 19.888v3.183c0 .53-.428.959-.957.959zm-13.06-1.914H66.24V47.1c0-9.591-7.55-17.451-17.017-17.95v12.157a5.88 5.88 0 0 1 4.913 5.794v2.225zM2.461 18.867H16.48c.529 0 .957.428.957.957v3.183a3.962 3.962 0 0 0 3.957 3.958c.529 0 .957.428.957.957V41.94c0 .529-.428.957-.957.957-10.967 0-19.889-8.922-19.889-19.888v-3.183c0-.53.428-.959.957-.959zm13.06 1.914H3.419v2.226c0 9.59 7.55 17.45 17.018 17.95V28.8a5.88 5.88 0 0 1-4.914-5.794V20.78z" fill="#E6332A"></path>
		</symbol>
	
		<symbol id="ad-l-3" viewBox="0 0 70 70">
			<path d="M32.1 6.207C24.984 3.419 6.307 2.509 3.783 2.397l-1.21.306a1.24 1.24 0 0 0-.324 1.292v52.737l.27.338c.435.542.447.558 15.669 2.008l-.56 4.77c-.077.657.21 1.302.753 1.69 1.892 1.324 3.987 1.87 5.894 1.981 3.612.212 5.288-2.574 5.288-2.574l6.338-50.867c.307-1.136.3-2.422-.05-3.654-.558-1.965-1.926-3.5-3.753-4.217zM27.21 63.96c-1.435 1.547-4.483 1.455-7.095-.22l5.415-46.114a.593.593 0 0 1 .284-.45.694.694 0 0 1 .6-.052c2.107.78 4.672.976 6.602.235L27.21 63.961zm5.86-49.543c-.81 1.083-3.468 1.267-5.805.403a3.114 3.114 0 0 0-2.735.26 3.05 3.05 0 0 0-1.441 2.258l-4.614 39.298c-4.584-.437-11.297-1.101-13.768-1.394l-.01-50.339c4.603.239 20.441 1.215 26.505 3.59 1.515.594 2.019 1.907 2.286 2.602.52 1.355-.239 3.083-.418 3.322zM56.194 67.603h10.062c.858 0 1.557-.698 1.557-1.557v-53.41c0-.86-.699-1.557-1.557-1.557H56.193c-.859 0-1.556.697-1.556 1.556v53.411c0 .86.697 1.557 1.556 1.557zm.9-54.067h8.26v3.58h-2.521a1.23 1.23 0 0 0 0 2.457h2.522v4.454h-2.522a1.23 1.23 0 0 0 0 2.458h2.522v4.456h-2.522a1.23 1.23 0 0 0 0 2.457h2.522v4.455h-2.522a1.23 1.23 0 0 0 0 2.457h2.522v4.456h-2.522a1.23 1.23 0 0 0 0 2.458h2.522v4.456h-2.522a1.23 1.23 0 0 0 0 2.458h2.522v4.454h-2.522a1.23 1.23 0 0 0 0 2.458h2.522v4.096h-8.26v-51.61zM46.632 33.52c-.547-1.088-2.317-1.095-2.868.003 0 0-3.545 7.572-3.545 7.872v24.488c0 .949.772 1.72 1.72 1.72h6.52c.948 0 1.72-.772 1.72-1.72V41.395c0-.3-3.547-7.875-3.547-7.875zm-3.956 8.612h5.045v18.423h-5.045V42.132zM45.2 36.15l1.763 3.526h-3.526l1.763-3.526zm2.522 28.996h-5.045v-2.133h5.045v2.133z" fill="#E6332A"></path>
		</symbol>
	
		<symbol id="ad-l-4" viewBox="0 0 70 70">
			<path d="M63.7 22.4H39.9V21h-2.8v4.2h23.8v33.6h-21V33.6h-2.8v25.2H9.8V25.2h16.1v-4.9h-2.8v2.1H9.8V11.2h27.3v1.4h2.8V8.4H7v53.2h56.7V22.4z" fill="#E6332A"></path>
		</symbol>
	
		<symbol id="ad-l-5" viewBox="0 0 70 70">
			<g clip-path="url(#a)" stroke="#E6332A" stroke-width="2"><path clip-rule="evenodd" d="M60.484 52.281c-.875.875-2.297.875-3.062 0L17.828 12.688c-.875-.876-.875-2.297 0-3.063l7.766-7.766c.875-.875 2.297-.875 3.062 0L68.25 41.453c.875.875.875 2.297 0 3.063l-7.766 7.765z"></path><path d="M19.36 3.39l2.296 2.297M64.422 48.344l3.062 3.172-9.296 9.297-28-20.235-5.47 5.469"></path><path clip-rule="evenodd" d="M8.75 68.25c-.984.984-2.953.766-4.374-.656L3.172 66.39c-1.421-1.422-1.64-3.282-.656-4.375l18.047-18.047c.984-.985 2.953-.766 4.375.656l1.203 1.203c1.422 1.422 1.64 3.281.656 4.375L8.751 68.25z"></path><path d="M27.125 6.453L64.422 43.75"></path></g><defs><clipPath id="a"><path fill="#fff" d="M0 0h70v70H0z"></path></clipPath></defs>
		</symbol>
	
		<symbol id="ad-l-6" viewBox="0 0 70 70">
			<path d="M45.516 41.324c3.747 0 6.629 3.026 6.629 6.773v13.257a.31.31 0 0 1-.288.288H1.708a.31.31 0 0 1-.288-.288V48.097c0-3.747 3.026-6.773 6.629-6.773v13.401h37.323V41.325h.144zM7.615 39.162c0-3.747 3.026-6.917 6.917-6.917h24.786c3.747 0 6.917 3.026 6.917 6.917M11.363 48.385h30.695M14.967 38.01h2.45M22.03 38.01h2.593M29.232 38.01h2.45M36.291 38.01h2.594M14.967 43.63h2.45M22.03 43.63h2.593M29.232 43.63h2.45M36.291 43.63h2.594M7.615 61.498v4.036M44.652 61.498v4.036M64.685 24.175h-24.93a.31.31 0 0 1-.288-.288V8.756a.31.31 0 0 1 .288-.288h24.93a.31.31 0 0 1 .288.288v15.275c0 .144-.144.144-.288.144z" stroke="#E6332A" stroke-width="2" stroke-miterlimit="10"></path><path d="M61.083 18.987H44.799V11.35M55.46 53.141h13.114M62.09 53.141v12.393M59.352 47.665v4.179M63.82 49.826v2.018M1.568 22.734h32.424M7.188 10.773v11.961M11.652 10.773v11.961M16.123 13.223v9.511M20.588 10.773v11.961M22.031 12.647l8.502 8.214" stroke="#E6332A" stroke-width="2" stroke-miterlimit="10"></path>
		</symbol>
	
		<symbol id="construction" viewBox="0 0 30 30">
			<g clip-path="url(#a)" fill="#E6332A" stroke="#E6332A" stroke-width=".5"><path d="M20.024 13.85v2.452H9.974V13.85h10.05zm.357 3.772a.662.662 0 0 0 .152-.018.66.66 0 0 0 .812-.643V13.19a.66.66 0 0 0-.66-.66H9.313a.66.66 0 0 0-.66.66v3.772c0 .364.295.66.66.66h11.067zM24.503 22.21h2.452v5.929h-2.452v-5.93zm3.772-.44a.66.66 0 0 0-.009-.11.659.659 0 0 0-.651-.77h-3.772a.66.66 0 0 0-.66.66v7.249c0 .365.295.66.66.66h3.772a.66.66 0 0 0 .66-.66V21.77zM6.764 4.208V1.2a.66.66 0 0 0-.66-.66H2.332a.66.66 0 0 0-.66.66v7.25c0 .364.295.66.66.66h3.772a.66.66 0 0 0 .66-.66V4.207zm-1.32 0V7.79H2.992V1.861h2.452v2.347z"></path><path d="M22.792 22.21h6.007a.66.66 0 0 0 .66-.66v-1.365c0-4.838-3.935-8.774-8.773-8.774a.66.66 0 0 0-.66.66v6.008c0 .365.295.66.66.66.797 0 1.445.65 1.445 1.447v1.364c0 .364.296.66.66.66zm5.347-2.024v.704h-4.687v-.704a2.77 2.77 0 0 0-2.106-2.687v-4.738c3.801.335 6.793 3.537 6.793 7.425zM7.063 7.836H1.055a.66.66 0 0 0-.66.66v1.365c0 4.838 3.936 8.773 8.774 8.773a.66.66 0 0 0 .66-.66v-6.007a.66.66 0 0 0-.66-.66c-.797 0-1.446-.65-1.446-1.447V8.496a.66.66 0 0 0-.66-.66zM1.715 9.86v-.704h4.688v.704a2.77 2.77 0 0 0 2.106 2.687v4.738c-3.802-.335-6.794-3.537-6.794-7.425z"></path></g><defs><clipPath id="a"><path fill="#fff" d="M0 0h30v30H0z"></path></clipPath></defs>
		</symbol>
	
		<symbol id="equip-1" viewBox="0 0 100 100">
			<path d="M94.845 44.4v33.216H53.55M94.845 44.4l-21.19-22.87m21.19 22.87H53.55m20.104-22.87H26.383L4.648 44.4m69.006-22.87L53.55 44.4m-48.902 0v33.216H53.55M4.648 44.4H53.55m0 33.216V44.4M22.031 25.886h47.815M16.602 31.33H64.96M11.168 37.865h48.358M4.648 52.023H53.55M4.648 60.735H53.55M4.648 69.448H53.55M16.602 44.4v33.216M28.555 44.4v33.216M40.508 44.4v33.216M60.723 21.508L40.666 44.416M48.847 21.508L28.563 44.416M36.613 21.508l-20.15 22.908" stroke="#E6332A" stroke-width="2"></path>
		</symbol>
	
		<symbol id="equip-2" viewBox="0 0 100 100">
			<g clip-path="url(#a)" stroke="#E6332A" stroke-width="2"><path d="M19.86 16.628l-7.524 7.49v55.3l4.245 3.11 2.914-3.11h4.37l1.093 3.11H38.07l1.336-3.11h21.367l.728 3.11h13.84l1.214-3.11h4.127l3.157 3.11 3.278-3.11V23.805l-7.285-7.176h-3.277l-1.336 3.229H61.136l-1.457-3.23H39.89l-1.579 3.23h-13.96l-.85-3.23h-3.643zM26.664 20.117v62.334M41.82 16.628v63.076M73 19.784V82.45M57.86 16.628v63.076"></path></g><defs><clipPath id="a"><path fill="#fff" transform="translate(11 16)" d="M0 0h78v67.784H0z"></path></clipPath></defs>
		</symbol>
	
		<symbol id="equip-3" viewBox="0 0 100 100">
			<g clip-path="url(#a)" stroke="#E6332A" stroke-width="2"><path d="M55.64 75.231l12.654 5.486m0 0l3.743-3.54v-26.54m-3.743 30.08V54.352m3.743-3.716l-3.743 3.716m3.743-3.716l-5.347-2.388M17.32 31.88l3.209-4.247 21 9.378M17.32 31.88v27.073l6.417 2.654M17.32 31.88l50.974 22.472m-10.159-9.924l3.921-4.232 4.99 2.3m-8.911 1.932l4.99 2.228m-4.99-2.228l-8.377-3.741m17.288 1.81l-3.92 4.16m3.92-4.16l-.356 5.751m-3.564-1.592l3.564 1.592M41.528 37.011l4.13-4.423 4.457 2.123m-8.587 2.3l5.022 2.243m3.565-4.543l-3.565 4.543m3.565-4.543l-.357 5.976m-3.208-1.433l3.208 1.433M28.75 30.709V19.87m0 0l3.23-3.671 20.989 9.121m-24.219-5.45L79.7 42.246m3.767-3.671v26.57l-3.409 3.321m3.409-29.891l-3.768 3.67m3.768-3.67l-2.512-1.092m-.897 30.983s-4.444-2.024-7.176-3.32m7.176 3.32l-.359-26.22M52.97 25.32l6.279-6.5 5.023 2.448m-11.302 4.052l5.023 2.183m6.279-6.235l-6.279 6.235m6.279-6.235v8.964m-6.279-2.729l6.279 2.729m0 0l5.561 2.417m0 0l5.92-6.486 5.203 2.447M69.832 32.65l5.562 2.416m5.561-6.455v8.872m0-8.872l-5.561 6.455m5.561 2.417l-5.561-2.416M39.367 67.65l2.45.817M29.929 77.45l10.513-9.557.563-21.025M29.93 77.45l-5.257-2.29.188-19.951m5.069 22.24V57.469m-5.07-2.26l11.265-10.425 4.881 2.085m-16.145 8.34l5.069 2.26m11.076-10.6l-11.076 10.6M41.82 61.89V82.51l4.55 2.22M41.82 61.89l9.975-10.573 4.725 2.114m-14.7 8.46l4.55 2.114m10.15-10.574v20.795L46.545 84.8l-.175-.072m10.15-31.297L46.37 64.005m0 0v20.723"></path></g><defs><clipPath id="a"><path fill="#fff" transform="translate(15.336 13.333)" d="M0 0h69.333v72.667H0z"></path></clipPath></defs>
		</symbol>
	
		<symbol id="house" viewBox="0 0 45 40">
			<path d="M45 20c0-.365-.13-.677-.39-.938L23.36.313A1.345 1.345 0 0 0 22.5 0c-.313 0-.599.104-.86.313L.39 19.063c-.26.26-.39.572-.39.937.052.781.469 1.198 1.25 1.25.313 0 .599-.104.86-.313L5 18.282V36.25c.052 1.042.417 1.927 1.094 2.656.729.677 1.614 1.042 2.656 1.094H15c1.042-.052 1.927-.417 2.656-1.094.677-.729 1.042-1.614 1.094-2.656V27.5h7.422l.078 8.75c.052 1.042.417 1.927 1.094 2.656.729.677 1.614 1.042 2.656 1.094h6.25c1.042-.052 1.927-.417 2.656-1.094.677-.729 1.042-1.614 1.094-2.656V18.281l2.89 2.657c.261.208.547.312.86.312.781-.052 1.198-.469 1.25-1.25zm-7.5-3.75v20c-.052.781-.469 1.198-1.25 1.25H30c-.781-.052-1.198-.469-1.25-1.25V27.5c0-.73-.234-1.328-.703-1.797-.469-.469-1.068-.703-1.797-.703h-7.5c-.73 0-1.328.234-1.797.703-.469.469-.703 1.068-.703 1.797v8.75c-.052.781-.469 1.198-1.25 1.25H8.75c-.781-.052-1.198-.469-1.25-1.25v-20-.078l15-13.281 15 13.28v.079z" fill="#E6332A"></path>
		</symbol>
	
		<symbol id="house-tree" viewBox="0 0 51 40">
			<path d="M18.36 19.922h-6.72c-.989.104-1.536.677-1.64 1.719v6.718c.104.99.651 1.537 1.64 1.641h6.72c.989-.104 1.536-.651 1.64-1.64v-6.72c-.104-1.041-.651-1.614-1.64-1.718zm-.86 7.5h-5V22.5h5v4.922zm-.625-19.219a3 3 0 0 0-1.953-.703c-.677 0-1.25.234-1.719.703L1.328 18.984C.443 19.766 0 20.755 0 21.954V35c.052 1.406.547 2.578 1.484 3.516.938.937 2.11 1.432 3.516 1.484h19.922c1.406-.052 2.578-.547 3.515-1.484.938-.938 1.433-2.11 1.485-3.516L30 21.953c0-1.198-.443-2.187-1.328-2.969L16.875 8.204zM27.422 35c0 .73-.235 1.328-.703 1.797-.469.469-1.068.703-1.797.703H5c-.73 0-1.328-.234-1.797-.703C2.734 36.328 2.5 35.729 2.5 35V21.953c0-.469.182-.86.547-1.172l11.875-10.86 12.031 10.86c.365.365.547.756.547 1.172L27.422 35zm21.64-1.172l-4.765-5.547c1.354-.104 2.37-.781 3.047-2.031.52-1.302.364-2.5-.469-3.594l-5.234-6.093h.547c1.354-.053 2.317-.651 2.89-1.797.417-1.146.234-2.162-.547-3.047L34.688.938C34.062.313 33.28 0 32.343 0c-.938 0-1.719.313-2.344.938l-5.938 6.484c-.468.625-.442 1.224.079 1.797.625.416 1.224.39 1.797-.078l5.937-6.485c.313-.26.625-.26.938 0l9.921 10.703c.105.157.13.287.078.391-.052.156-.26.26-.624.313h-3.204c-.52 0-.911.234-1.172.703-.208.468-.156.911.157 1.328l6.953 8.203c.26.416.312.729.156.937-.052.209-.338.391-.86.547h-2.656c-.52 0-.911.235-1.171.703-.157.47-.078.912.234 1.328l6.563 7.657c.364.625.416 1.067.156 1.328-.052.312-.39.547-1.016.703H33.75c-.781.052-1.198.469-1.25 1.25.052.781.469 1.198 1.25 1.25h12.578c1.51-.052 2.63-.781 3.36-2.188.572-1.458.364-2.786-.626-3.984z" fill="#E6332A"></path>
		</symbol>
	
		<symbol id="roller" viewBox="0 0 30 30">
			<path clip-rule="evenodd" d="M24.95 22.015c-.342.343-.9.343-1.2 0L8.237 6.5c-.343-.343-.343-.9 0-1.2l3.043-3.043c.343-.343.9-.343 1.2 0l15.515 15.515c.343.343.343.9 0 1.2l-3.043 3.043z" stroke="#E6332A" stroke-width="2"></path><path d="M8.836 2.857l.9.9M26.494 20.472l1.2 1.243-3.643 3.643-10.972-7.929-2.143 2.143" stroke="#E6332A" stroke-width="2"></path><path clip-rule="evenodd" d="M4.68 28.272c-.386.386-1.158.3-1.715-.257l-.471-.471c-.557-.558-.643-1.286-.257-1.715l7.071-7.071c.386-.386 1.158-.3 1.715.257l.471.471c.557.557.643 1.286.257 1.715L4.68 28.272z" stroke="#E6332A" stroke-width="2"></path>
		</symbol>
	
</svg>
